<svg version="1.1" id="Layer_1" xmlns="http://www.w3.org/2000/svg" xmlns:xlink="http://www.w3.org/1999/xlink" x="0px" y="0px"
	 width="100%" viewBox="0 0 708 397" enable-background="new 0 0 708 397" xml:space="preserve">
<path fill="#FEFEFE" opacity="1.000000" stroke="none" 
	d="
M507.000000,398.000000 
	C338.038116,398.000000 169.576233,398.000000 1.057172,398.000000 
	C1.057172,265.734741 1.057172,133.469437 1.057172,1.102073 
	C236.878525,1.102073 472.757111,1.102073 708.817871,1.102073 
	C708.817871,133.333130 708.817871,265.666534 708.817871,398.000000 
	C641.802795,398.000000 574.651428,398.000000 507.000000,398.000000 
M263.897675,144.257706 
	C264.073425,143.983353 264.249146,143.709000 264.929047,142.989182 
	C280.572968,127.493462 296.216888,111.997742 312.839722,95.532410 
	C324.468658,107.592293 335.748779,119.290436 347.353333,131.661453 
	C348.617157,132.656006 349.880981,133.650558 351.144806,134.645111 
	C351.526550,134.245560 351.908295,133.846024 352.290039,133.446472 
	C351.236633,132.218826 350.183197,130.991196 348.856476,129.165619 
	C336.658661,116.169563 324.460815,103.173508 311.646606,89.520714 
	C310.213104,91.300819 309.170746,92.777306 307.948090,94.085274 
	C295.136810,107.790436 282.285889,121.458527 269.474762,135.163849 
	C267.238312,137.556396 265.135956,140.074280 262.536407,142.742798 
	C262.228149,142.917053 262.062866,143.180893 261.977661,143.611908 
	C261.977661,143.611908 261.897980,143.673477 261.269958,143.955399 
	C259.046661,146.306931 256.823395,148.658463 254.600128,151.009995 
	C255.151550,151.528671 255.702972,152.047333 256.254395,152.566010 
	C258.479340,150.038666 260.704254,147.511322 263.305237,144.822601 
	C263.305237,144.822601 263.429199,144.432617 263.897675,144.257706 
M212.987183,172.985825 
	C212.987183,172.985825 212.963623,172.915268 213.486923,172.697464 
	C213.958511,172.122574 214.430084,171.547684 215.523026,170.713562 
	C221.559860,164.558350 227.596695,158.403137 234.208511,151.986618 
	C244.346237,141.748993 254.483978,131.511368 265.195648,121.022598 
	C273.453583,112.646751 281.711548,104.270905 290.567352,95.620224 
	C295.172363,90.886742 299.777374,86.153259 304.322662,81.116035 
	C304.322662,81.116035 304.330536,81.425484 304.853577,81.278267 
	C305.147614,80.851295 305.441650,80.424316 306.157379,79.442131 
	C311.651947,74.031288 311.634521,74.048981 317.130951,79.457870 
	C320.058380,82.338669 323.058258,85.145836 326.284119,88.599426 
	C333.532043,95.729958 340.779968,102.860489 348.282440,110.609352 
	C356.840210,119.101227 365.398010,127.593109 374.139130,136.730408 
	C381.098877,143.456451 388.058624,150.182480 395.278931,157.535217 
	C402.106964,164.241669 408.934998,170.948120 416.032806,178.221893 
	C428.235199,190.460846 440.391479,202.746796 452.719788,214.857590 
	C453.811707,215.930252 456.020081,216.236694 457.718689,216.259995 
	C467.199036,216.390152 476.682037,216.323517 486.164154,216.323959 
	C491.042267,216.324173 495.920410,216.323990 500.150604,216.323990 
	C485.480804,201.147293 470.853821,186.014908 455.950806,170.262589 
	C450.341064,164.756912 444.731323,159.251221 438.807312,153.140732 
	C437.953125,152.440308 437.060120,151.781860 436.250916,151.032837 
	C428.577728,143.930435 420.918793,136.812668 413.342773,129.780075 
	C412.376465,133.089691 411.185577,137.168518 409.611969,140.986176 
	C409.611969,140.986176 409.152771,140.924484 409.300995,140.026962 
	C409.219849,136.683136 409.138702,133.339294 409.280243,129.080612 
	C409.204102,122.052376 409.127960,115.024147 409.272186,107.080368 
	C409.199402,99.386368 409.126648,91.692368 409.270172,83.081841 
	C409.270172,76.524155 409.270172,69.966469 409.270172,63.386299 
	C400.186951,63.386299 391.818115,63.386299 383.289734,63.386299 
	C383.289734,70.141136 383.289734,76.575157 383.107452,83.916214 
	C383.107452,87.963287 383.107452,92.010353 383.107452,96.057426 
	C382.528412,96.425873 381.949402,96.794327 381.370361,97.162781 
	C380.155182,95.431778 379.171417,93.460533 377.676239,92.020226 
	C374.643616,89.099030 371.334229,86.465164 367.922791,83.083488 
	C361.378113,76.352074 354.833466,69.620651 347.991608,62.271614 
	C341.398651,55.811291 334.805725,49.350967 327.942139,42.268063 
	C322.775574,36.997055 317.608978,31.726049 313.101105,27.127060 
	C306.647919,33.034786 300.719604,38.461983 294.189514,44.160507 
	C288.985077,49.449745 283.780609,54.738979 277.948761,60.364349 
	C271.925446,66.467560 265.902100,72.570778 259.280212,79.011475 
	C254.757950,83.637383 250.235703,88.263290 245.118103,93.159431 
	C237.302551,101.047386 229.487000,108.935341 221.088150,117.120979 
	C210.626083,127.700928 200.164017,138.280884 189.104233,149.123245 
	C182.023117,156.312546 174.941986,163.501831 167.237793,170.960785 
	C158.731201,179.310242 150.224625,187.659683 141.175018,196.542130 
	C155.514221,198.585419 168.637604,200.528091 181.793655,202.216232 
	C183.089722,202.382553 184.911499,201.309586 185.937927,200.268326 
	C194.214310,191.872330 202.358521,183.346039 210.758865,174.790924 
	C210.758865,174.790924 210.934662,174.648209 211.611237,174.506912 
	C212.046204,173.992523 212.481171,173.478134 212.987183,172.985825 
M380.992401,163.380325 
	C380.710571,163.206024 380.428772,163.031738 379.916290,162.228165 
	C377.329895,159.440491 374.743500,156.652817 372.157074,153.865128 
	C371.803375,154.253677 371.449646,154.642242 371.095947,155.030792 
	C373.923065,157.927399 376.750183,160.824005 379.711121,164.028610 
	C379.845520,164.223694 380.027405,164.350937 380.563385,164.936935 
	C381.297516,165.537445 382.031647,166.137955 382.765778,166.738464 
	C383.189423,166.260284 383.613068,165.782104 384.036713,165.303925 
	C383.063202,164.828293 382.089691,164.352661 380.992401,163.380325 
M365.531982,147.026108 
	C365.925568,147.645309 366.319183,148.264496 366.915833,149.203140 
	C366.108185,148.291916 365.524078,147.632889 364.262756,146.803406 
	C361.932617,143.963074 359.602509,141.122726 357.272369,138.282394 
	C356.657684,138.967377 356.042969,139.652359 355.428284,140.337357 
	C358.614929,142.532227 361.801575,144.727097 365.531982,147.026108 
M440.701324,368.494354 
	C456.797607,369.967834 472.893890,371.441284 489.734894,373.094727 
	C490.493225,373.032318 491.251587,372.969910 492.798248,373.045105 
	C493.859161,372.977448 494.920105,372.909760 496.900574,372.992767 
	C509.973694,372.781464 522.812256,370.967255 535.430725,367.532074 
	C530.024597,367.330414 524.676636,367.810974 519.323303,367.880066 
	C509.864685,368.002228 500.402802,367.873840 490.177948,367.627808 
	C487.440735,367.457031 484.703552,367.286255 481.526978,366.800598 
	C481.009460,366.850433 480.491913,366.900269 479.130157,366.609863 
	C475.079437,366.162842 471.028687,365.715851 466.515869,365.028961 
	C466.345856,365.063873 466.175873,365.098816 465.261627,364.848785 
	C456.179352,363.088043 447.097046,361.327301 437.305603,359.181976 
	C428.946991,356.915253 420.588379,354.648529 411.641296,352.025787 
	C409.424500,351.365845 407.207733,350.705902 404.567963,349.676270 
	C404.041534,349.527893 403.515106,349.379517 402.353821,348.897247 
	C400.556915,348.303009 398.759979,347.708740 396.549622,346.748657 
	C396.028900,346.619904 395.508209,346.491150 394.324097,345.979858 
	C384.207153,342.338776 374.090240,338.697693 363.959381,334.993225 
	C363.959381,334.993225 363.910370,335.035797 363.775299,334.741272 
	C363.577728,334.552368 363.386963,334.558899 362.561493,334.254944 
	C346.400604,328.159424 330.239685,322.063904 313.547913,315.527527 
	C312.668549,315.271942 311.789154,315.016357 310.629669,314.404480 
	C310.629669,314.404480 310.179138,314.355103 309.653015,313.970459 
	C295.431549,308.421722 281.210083,302.873016 266.460480,296.932739 
	C259.413818,294.032898 252.377899,291.106628 245.318268,288.238708 
	C230.672394,282.288910 216.065674,276.238159 201.349701,270.466400 
	C171.771667,258.865723 142.422806,246.571304 111.278412,239.525421 
	C91.955093,235.153870 72.680252,233.640793 53.446667,240.505707 
	C53.783241,240.927002 54.001541,241.419830 54.196827,241.410873 
	C56.264473,241.316071 58.326195,241.058350 60.393814,241.001831 
	C78.438255,240.508499 96.069962,243.627502 112.844093,249.711121 
	C149.900986,263.150848 186.635178,277.482910 223.463165,291.550079 
	C237.778137,297.018005 251.991013,302.753265 266.733215,308.912933 
	C281.098145,314.478455 295.463104,320.043945 310.372070,325.998199 
	C328.550598,332.743286 346.729095,339.488403 365.408417,346.715942 
	C374.520905,349.842560 383.633392,352.969177 393.047302,356.443298 
	C393.047302,356.443298 393.463867,356.635132 393.463867,356.635132 
	C393.463867,356.635132 393.918152,356.572601 394.594116,356.957275 
	C397.061188,357.641418 399.528259,358.325592 402.564301,359.457672 
	C415.045471,362.353180 427.526672,365.248657 440.701324,368.494354 
M442.329681,117.161621 
	C438.450714,120.737297 434.571747,124.312973 430.777435,127.810600 
	C437.751129,134.685425 443.963867,140.810104 450.615997,147.367905 
	C455.701050,142.212936 460.993622,136.991760 466.115417,131.608154 
	C469.973816,127.552521 473.613464,123.288826 477.969116,118.879715 
	C481.335114,115.687325 484.701111,112.494934 488.779144,109.065529 
	C489.499634,109.102356 490.220093,109.139183 491.208771,109.773712 
	C496.441559,114.910522 501.674347,120.047325 507.137970,125.803719 
	C513.181519,131.620087 519.225037,137.436447 525.556641,143.904999 
	C532.683594,150.973129 539.810547,158.041245 547.210571,165.714569 
	C563.329773,181.841492 579.407837,198.010162 595.644287,214.018173 
	C596.983154,215.338226 599.384399,216.163574 601.313660,216.204605 
	C611.464417,216.420502 621.622131,216.325394 631.777283,216.290268 
	C632.804443,216.286728 633.830566,215.962250 633.985229,215.935806 
	C617.151184,198.659714 600.212646,181.276413 583.000793,163.263824 
	C576.093262,156.477005 569.185730,149.690186 562.165100,141.985550 
	C562.021545,136.657990 561.877991,131.330414 561.944702,125.089592 
	C561.852661,120.045013 561.760620,115.000435 561.747314,109.552193 
	C561.587402,109.249458 561.352783,109.171555 560.369385,109.076385 
	C559.899963,109.132988 559.430542,109.189583 558.501831,109.122940 
	C558.501831,109.122940 558.043701,109.250801 557.138794,109.057541 
	C553.751709,109.101013 550.364624,109.144493 546.501404,109.039093 
	C546.501404,109.039093 546.025757,109.189430 545.162415,109.045097 
	C540.574402,108.725655 541.287842,111.356056 541.733337,114.451378 
	C542.023560,115.521721 542.313782,116.592064 542.144470,118.179756 
	C541.661560,119.093498 541.178650,120.007240 540.155945,121.942329 
	C535.254333,116.630066 530.763611,111.763107 525.994934,106.269875 
	C514.008057,94.128166 502.021210,81.986465 490.914429,70.736221 
	C479.340790,81.721458 468.500641,92.010521 457.048035,102.623375 
	C452.346497,107.377235 447.644989,112.131088 442.329681,117.161621 
M367.648529,307.964905 
	C369.755096,308.484314 371.861664,309.003723 374.541626,309.898438 
	C384.328735,312.681824 394.115814,315.465240 404.477295,318.696289 
	C410.961975,320.196533 417.446655,321.696747 424.540161,323.636108 
	C433.692322,325.321564 442.844452,327.007019 452.800995,328.972504 
	C462.199554,329.807983 471.598145,330.643463 481.887482,331.785645 
	C493.257385,331.503693 504.627289,331.221741 516.727173,331.094421 
	C525.175781,329.791382 533.624451,328.488342 542.890930,327.198029 
	C549.666260,325.326172 556.441589,323.454285 564.001831,321.506073 
	C573.001648,317.656769 582.001404,313.807434 591.707336,309.903168 
	C598.166016,305.676636 604.624634,301.450104 611.801270,297.135162 
	C613.880615,295.811340 616.075012,294.637115 618.021851,293.140930 
	C640.981934,275.495667 658.737610,253.500992 671.947571,227.833771 
	C675.789307,220.369202 678.899109,212.527908 682.344421,204.859314 
	C679.939514,206.183121 678.520447,207.996048 677.168884,209.857910 
	C665.285461,226.227036 650.994873,240.156418 633.455322,250.218948 
	C622.399719,256.561615 610.513733,261.456909 598.227356,267.013214 
	C590.459839,269.282227 582.692383,271.551239 574.103821,273.812927 
	C565.402222,275.280609 556.700623,276.748322 547.136597,278.083527 
	C539.424438,278.756439 531.712280,279.429321 523.073486,279.949646 
	C513.710083,280.066315 504.346649,280.182953 494.154266,280.100708 
	C490.575317,280.271729 486.971130,280.796234 483.422546,280.542511 
	C475.264465,279.959259 467.133453,278.997223 458.159576,277.925232 
	C450.809509,277.201202 443.459412,276.477173 435.427643,275.350983 
	C425.610657,273.942963 415.793640,272.534943 405.225189,270.843781 
	C396.812286,269.396942 388.399384,267.950104 379.231476,266.144287 
	C371.833038,264.735077 364.434631,263.325867 356.524292,261.530914 
	C346.680267,259.390991 336.836212,257.251068 326.314880,254.754105 
	C310.222931,250.792358 294.130951,246.830612 277.466522,242.411301 
	C264.973145,239.050171 252.479782,235.689056 239.304245,231.961731 
	C210.805725,223.643097 181.907440,217.104034 152.445206,213.384842 
	C127.228874,210.201614 101.929092,208.970245 76.793495,214.112183 
	C60.913475,217.360748 46.024334,222.971375 34.473278,235.058395 
	C30.153770,239.578323 26.805477,244.748062 25.309063,251.092865 
	C27.052505,250.706284 28.548676,250.113785 29.713579,249.129318 
	C50.695316,231.397781 75.084137,226.408829 101.765976,229.512695 
	C126.725159,232.416138 150.713593,239.378357 174.576706,246.783356 
	C200.782730,254.915375 226.862640,263.453796 253.640808,272.187958 
	C261.023102,274.588135 268.394226,277.023315 275.791138,279.377625 
	C281.844421,281.304230 287.928436,283.134338 294.554321,285.470306 
	C310.690582,290.367554 326.826874,295.264801 343.496552,300.650635 
	C350.893829,302.803070 358.291138,304.955536 366.000793,307.474518 
	C366.000793,307.474518 366.443817,307.660278 366.443817,307.660278 
	C366.443817,307.660278 366.920502,307.600952 367.648529,307.964905 
M291.775421,191.424866 
	C296.726746,191.424866 301.678070,191.424866 306.766846,191.424866 
	C306.766846,184.394943 306.766846,177.850403 306.766846,171.135010 
	C299.929657,171.135010 293.382690,171.135010 286.660767,171.135010 
	C286.660767,177.937180 286.660767,184.470901 286.660767,191.423645 
	C288.265503,191.423645 289.561523,191.423645 291.775421,191.424866 
M325.524445,170.869141 
	C322.772339,170.869141 320.020203,170.869141 317.327576,170.869141 
	C317.327576,178.070068 317.327576,184.590561 317.327576,191.099396 
	C324.237610,191.099396 330.799408,191.099396 337.286865,191.099396 
	C337.286865,184.222000 337.286865,177.678955 337.286865,170.869125 
	C333.452759,170.869125 329.979889,170.869125 325.524445,170.869141 
M331.386353,162.141388 
	C333.329163,162.141388 335.271942,162.141388 337.348297,162.141388 
	C337.348297,155.112946 337.348297,148.583893 337.348297,141.907852 
	C330.458252,141.907852 323.872833,141.907852 317.265869,141.907852 
	C317.265869,148.696823 317.265869,155.256561 317.265869,162.141403 
	C321.833496,162.141403 326.123444,162.141403 331.386353,162.141388 
M291.821259,141.688004 
	C290.071625,141.688004 288.321991,141.688004 286.593445,141.688004 
	C286.593445,148.839615 286.593445,155.266327 286.593445,161.764954 
	C293.523346,161.764954 300.203064,161.764954 306.841248,161.764954 
	C306.841248,154.955811 306.841248,148.529312 306.841248,141.686127 
	C302.006195,141.686127 297.379974,141.686127 291.821259,141.688004 
z"/>
<path fill="#2C4294" opacity="1.000000" stroke="none" 
	d="
M252.997498,271.815155 
	C226.862640,263.453796 200.782730,254.915375 174.576706,246.783356 
	C150.713593,239.378357 126.725159,232.416138 101.765976,229.512695 
	C75.084137,226.408829 50.695316,231.397781 29.713579,249.129318 
	C28.548676,250.113785 27.052505,250.706284 25.309063,251.092865 
	C26.805477,244.748062 30.153770,239.578323 34.473278,235.058395 
	C46.024334,222.971375 60.913475,217.360748 76.793495,214.112183 
	C101.929092,208.970245 127.228874,210.201614 152.445206,213.384842 
	C181.907440,217.104034 210.805725,223.643097 239.647217,232.538788 
	C241.565796,239.107178 242.808563,245.212006 244.802704,251.060623 
	C247.200348,258.092682 250.237335,264.906708 252.997498,271.815155 
z"/>
<path fill="#304695" opacity="1.000000" stroke="none" 
	d="
M266.250397,308.366730 
	C251.991013,302.753265 237.778137,297.018005 223.463165,291.550079 
	C186.635178,277.482910 149.900986,263.150848 112.844093,249.711121 
	C96.069962,243.627502 78.438255,240.508499 60.393814,241.001831 
	C58.326195,241.058350 56.264473,241.316071 54.196827,241.410873 
	C54.001541,241.419830 53.783241,240.927002 53.446667,240.505707 
	C72.680252,233.640793 91.955093,235.153870 111.278412,239.525421 
	C142.422806,246.571304 171.771667,258.865723 201.349701,270.466400 
	C216.065674,276.238159 230.672394,282.288910 245.318268,288.238708 
	C252.377899,291.106628 259.413818,294.032898 266.712952,297.514343 
	C266.169922,301.349304 264.477112,304.739899 269.080322,307.272400 
	C267.723938,307.796906 266.987183,308.081818 266.250397,308.366730 
z"/>
<path fill="#2A4193" opacity="1.000000" stroke="none" 
	d="
M456.226898,170.882492 
	C470.853821,186.014908 485.480804,201.147293 500.150604,216.323990 
	C495.920410,216.323990 491.042267,216.324173 486.164154,216.323959 
	C476.682037,216.323517 467.199036,216.390152 457.718689,216.259995 
	C456.020081,216.236694 453.811707,215.930252 452.719788,214.857590 
	C440.391479,202.746796 428.235199,190.460846 415.945953,177.550919 
	C415.361969,175.455978 414.864807,174.032013 414.218567,172.180939 
	C416.508942,172.851013 418.206329,173.790161 419.891144,173.767990 
	C430.100525,173.633743 440.311615,173.380203 450.510406,172.911285 
	C452.442902,172.822433 454.322784,171.588196 456.226898,170.882492 
z"/>
<path fill="#F15B2C" opacity="1.000000" stroke="none" 
	d="
M583.274170,163.893127 
	C600.212646,181.276413 617.151184,198.659714 633.985229,215.935806 
	C633.830566,215.962250 632.804443,216.286728 631.777283,216.290268 
	C621.622131,216.325394 611.464417,216.420502 601.313660,216.204605 
	C599.384399,216.163574 596.983154,215.338226 595.644287,214.018173 
	C579.407837,198.010162 563.329773,181.841492 547.359619,165.098602 
	C549.293152,164.321762 551.076721,164.034714 552.862427,164.020859 
	C562.999390,163.942139 573.136841,163.928741 583.274170,163.893127 
z"/>
<path fill="#2657A0" opacity="1.000000" stroke="none" 
	d="
M342.963135,300.162048 
	C326.826874,295.264801 310.690582,290.367554 294.276978,284.824402 
	C291.694397,277.654541 289.543976,271.070496 287.042847,264.622559 
	C284.205444,257.307770 281.053955,250.114792 278.039001,242.868866 
	C294.130951,246.830612 310.222931,250.792358 326.648254,255.290558 
	C327.462769,257.861633 327.678741,260.010559 328.493805,261.901215 
	C329.460632,264.143921 331.213348,266.052612 332.144287,268.304932 
	C333.902374,272.558472 334.521667,277.503937 337.054596,281.165405 
	C341.123596,287.047302 343.178345,293.147125 342.963135,300.162048 
z"/>
<path fill="#2EA9DF" opacity="1.000000" stroke="none" 
	d="
M599.000244,267.001465 
	C610.513733,261.456909 622.399719,256.561615 633.455322,250.218948 
	C650.994873,240.156418 665.285461,226.227036 677.168884,209.857910 
	C678.520447,207.996048 679.939514,206.183121 682.344421,204.859314 
	C678.899109,212.527908 675.789307,220.369202 671.947571,227.833771 
	C658.737610,253.500992 640.981934,275.495667 618.021851,293.140930 
	C616.075012,294.637115 613.880615,295.811340 611.381836,296.825317 
	C610.107727,295.473450 608.949036,294.558472 608.451294,293.367340 
	C606.331848,288.294983 604.313721,283.174988 602.445312,278.004913 
	C601.140198,274.393738 600.137817,270.673157 599.000244,267.001465 
z"/>
<path fill="#2881BF" opacity="1.000000" stroke="none" 
	d="
M458.991455,278.188904 
	C467.133453,278.997223 475.264465,279.959259 483.422546,280.542511 
	C486.971130,280.796234 490.575317,280.271729 494.578735,280.554382 
	C496.326996,283.651550 497.877441,286.207855 498.933685,288.954254 
	C502.719666,298.798248 506.221008,308.752686 510.074890,318.569153 
	C511.741211,322.813538 514.004883,326.823395 515.997192,330.939789 
	C504.627289,331.221741 493.257385,331.503693 481.437561,331.272888 
	C480.507172,329.201935 480.143494,327.595825 479.526703,326.093597 
	C476.291473,318.213898 473.235168,310.247498 469.646912,302.529633 
	C466.042511,294.777008 466.090546,285.359344 459.064880,279.158997 
	C458.890686,279.005249 459.009369,278.519714 458.991455,278.188904 
z"/>
<path fill="#2966AB" opacity="1.000000" stroke="none" 
	d="
M348.027863,109.991028 
	C340.779968,102.860489 333.532043,95.729958 326.478027,88.130508 
	C329.405975,86.774361 332.117218,85.215668 334.878143,85.122055 
	C344.289612,84.802963 353.719360,85.062004 363.140137,84.942047 
	C364.811340,84.920761 366.472931,84.141891 368.138947,83.712860 
	C371.334229,86.465164 374.643616,89.099030 377.676239,92.020226 
	C379.171417,93.460533 380.155182,95.431778 381.370361,97.162781 
	C381.949402,96.794327 382.528412,96.425873 383.107452,96.057426 
	C383.107452,92.010353 383.107452,87.963287 383.647522,83.460571 
	C392.476379,83.336067 400.765137,83.667213 409.053894,83.998367 
	C409.126648,91.692368 409.199402,99.386368 408.689575,107.539795 
	C391.723419,107.999481 375.338440,107.882355 358.957581,108.090584 
	C355.306885,108.136993 351.670715,109.327362 348.027863,109.991028 
z"/>
<path fill="#246FB1" opacity="1.000000" stroke="none" 
	d="
M368.030884,83.398178 
	C366.472931,84.141891 364.811340,84.920761 363.140137,84.942047 
	C353.719360,85.062004 344.289612,84.802963 334.878143,85.122055 
	C332.117218,85.215668 329.405975,86.774361 326.348694,87.823906 
	C323.058258,85.145836 320.058380,82.338669 317.130951,79.457870 
	C311.634521,74.048981 311.651947,74.031288 305.655884,79.765594 
	C304.879791,80.534531 304.605164,80.980011 304.330536,81.425491 
	C304.330536,81.425484 304.322662,81.116035 303.942566,81.107391 
	C300.181335,81.065781 296.799591,80.973618 293.419220,81.010880 
	C282.985046,81.125877 272.551208,81.347534 262.117920,81.315186 
	C261.368835,81.312859 260.625031,79.594482 259.878784,78.673996 
	C265.902100,72.570778 271.925446,66.467560 278.423279,60.610348 
	C282.814362,62.237446 286.743866,64.835266 290.645294,64.793831 
	C309.865570,64.589615 329.188354,66.688194 348.288788,62.889229 
	C354.833466,69.620651 361.378113,76.352074 368.030884,83.398178 
z"/>
<path fill="#2657A0" opacity="1.000000" stroke="none" 
	d="
M264.621704,121.273743 
	C254.483978,131.511368 244.346237,141.748993 233.529160,151.966644 
	C228.654770,151.630905 224.460114,151.309860 220.264603,151.000488 
	C211.733856,150.371445 203.203842,149.730850 194.668808,149.165985 
	C194.133286,149.130554 193.557205,149.707794 192.649353,149.966278 
	C191.433136,149.575317 190.567535,149.218063 189.701950,148.860825 
	C200.164017,138.280884 210.626083,127.700928 221.701080,117.166946 
	C223.125702,117.668602 223.941574,118.526848 224.748474,118.518509 
	C234.213806,118.420753 243.681168,118.289223 253.140579,117.955795 
	C257.403748,117.805519 261.387238,118.106575 264.621704,121.273743 
z"/>
<path fill="#2A4D9A" opacity="1.000000" stroke="none" 
	d="
M277.752747,242.640076 
	C281.053955,250.114792 284.205444,257.307770 287.042847,264.622559 
	C289.543976,271.070496 291.694397,277.654541 293.999237,284.592834 
	C287.928436,283.134338 281.844421,281.304230 275.791138,279.377625 
	C268.394226,277.023315 261.023102,274.588135 253.319153,272.001556 
	C250.237335,264.906708 247.200348,258.092682 244.802704,251.060623 
	C242.808563,245.212006 241.565796,239.107178 239.988312,232.721893 
	C252.479782,235.689056 264.973145,239.050171 277.752747,242.640076 
z"/>
<path fill="#2477B8" opacity="1.000000" stroke="none" 
	d="
M458.575500,278.057068 
	C459.009369,278.519714 458.890686,279.005249 459.064880,279.158997 
	C466.090546,285.359344 466.042511,294.777008 469.646912,302.529633 
	C473.235168,310.247498 476.291473,318.213898 479.526703,326.093597 
	C480.143494,327.595825 480.507172,329.201935 480.992157,331.119537 
	C471.598145,330.643463 462.199554,329.807983 452.398804,328.417694 
	C451.679932,325.448456 451.881805,322.805084 450.938263,320.667358 
	C448.992126,316.258179 446.245544,312.207581 444.194946,307.837402 
	C442.809235,304.884247 441.641815,301.705475 441.106781,298.505585 
	C440.328888,293.853088 439.475403,289.553650 435.741974,286.085907 
	C432.612885,283.179443 433.083191,278.139709 436.109344,275.753143 
	C443.459412,276.477173 450.809509,277.201202 458.575500,278.057068 
z"/>
<path fill="#2D89C6" opacity="1.000000" stroke="none" 
	d="
M516.362183,331.017090 
	C514.004883,326.823395 511.741211,322.813538 510.074890,318.569153 
	C506.221008,308.752686 502.719666,298.798248 498.933685,288.954254 
	C497.877441,286.207855 496.326996,283.651550 494.993225,280.653839 
	C504.346649,280.182953 513.710083,280.066315 523.541748,280.392456 
	C524.084900,281.326263 524.053406,281.865234 524.250000,282.301392 
	C530.871338,296.992981 539.973328,310.697388 542.073059,327.185303 
	C533.624451,328.488342 525.175781,329.791382 516.362183,331.017090 
z"/>
<path fill="#2371B3" opacity="1.000000" stroke="none" 
	d="
M435.768494,275.552063 
	C433.083191,278.139709 432.612885,283.179443 435.741974,286.085907 
	C439.475403,289.553650 440.328888,293.853088 441.106781,298.505585 
	C441.641815,301.705475 442.809235,304.884247 444.194946,307.837402 
	C446.245544,312.207581 448.992126,316.258179 450.938263,320.667358 
	C451.881805,322.805084 451.679932,325.448456 451.996643,328.277679 
	C442.844452,327.007019 433.692322,325.321564 424.250702,323.015869 
	C417.662567,306.794769 411.313293,291.213745 405.166382,275.553314 
	C404.700592,274.366669 405.672821,272.615631 405.976624,271.126923 
	C415.793640,272.534943 425.610657,273.942963 435.768494,275.552063 
z"/>
<path fill="#2B4394" opacity="1.000000" stroke="none" 
	d="
M210.543091,174.859528 
	C202.358521,183.346039 194.214310,191.872330 185.937927,200.268326 
	C184.911499,201.309586 183.089722,202.382553 181.793655,202.216232 
	C168.637604,200.528091 155.514221,198.585419 141.175018,196.542130 
	C150.224625,187.659683 158.731201,179.310242 167.770355,171.139008 
	C181.075821,171.546722 193.851547,171.694016 206.617538,172.127472 
	C207.955429,172.172897 209.235947,173.908234 210.543091,174.859528 
z"/>
<path fill="#F48229" opacity="1.000000" stroke="none" 
	d="
M457.660461,102.299591 
	C468.500641,92.010521 479.340790,81.721458 490.914429,70.736221 
	C502.021210,81.986465 514.008057,94.128166 525.670898,106.613480 
	C518.053650,106.615196 510.757599,106.321869 503.468506,105.906647 
	C500.698456,105.748848 497.939301,105.349159 495.184235,104.990448 
	C491.936584,104.567627 490.565033,105.965866 490.940582,109.176003 
	C490.220093,109.139183 489.499634,109.102356 488.507355,108.828522 
	C488.647369,104.148186 485.006317,105.195557 482.904053,105.106384 
	C476.256439,104.824387 469.580688,105.187576 462.935730,104.875977 
	C461.140961,104.791801 459.416962,103.199600 457.660461,102.299591 
z"/>
<path fill="#2999D2" opacity="1.000000" stroke="none" 
	d="
M591.001221,309.958099 
	C582.001404,313.807434 573.001648,317.656769 563.465820,321.157776 
	C561.418457,316.490692 560.372253,311.933075 558.302368,307.901031 
	C553.455139,298.459198 549.430847,288.808472 547.999023,278.216003 
	C556.700623,276.748322 565.402222,275.280609 574.715576,274.129822 
	C576.459167,276.703339 577.740356,278.899750 578.680969,281.233459 
	C579.613037,283.545990 580.833130,286.003479 580.808289,288.385712 
	C580.758484,293.160248 580.786194,297.478668 586.310669,299.353394 
	C586.952942,299.571289 587.540833,300.454224 587.816223,301.160522 
	C588.948853,304.065399 589.951050,307.021088 591.001221,309.958099 
z"/>
<path fill="#2B66AB" opacity="1.000000" stroke="none" 
	d="
M403.902893,318.248596 
	C394.115814,315.465240 384.328735,312.681824 374.265289,309.285278 
	C373.413666,306.966095 373.062866,305.138611 372.218750,303.577942 
	C370.127655,299.711975 367.472687,296.121033 365.670074,292.136475 
	C363.387421,287.090820 361.680084,281.780792 359.807709,276.554993 
	C358.292175,272.325043 356.842987,268.068176 355.540527,263.769897 
	C355.411041,263.342499 356.508301,262.543304 357.036194,261.916656 
	C364.434631,263.325867 371.833038,264.735077 379.612854,266.690979 
	C382.047028,272.305054 384.072479,277.383698 386.165588,282.434357 
	C387.036926,284.536835 388.451874,286.492035 388.928497,288.665771 
	C390.452759,295.617615 392.224274,302.215485 398.232941,307.024200 
	C400.193359,308.593140 400.946533,311.670532 402.251831,314.058044 
	C401.861420,314.261566 401.470978,314.465088 401.080536,314.668610 
	C402.463623,315.126007 403.846680,315.583374 405.375610,316.089020 
	C404.784302,316.956146 404.343597,317.602386 403.902893,318.248596 
z"/>
<path fill="#285FA6" opacity="1.000000" stroke="none" 
	d="
M356.780243,261.723785 
	C356.508301,262.543304 355.411041,263.342499 355.540527,263.769897 
	C356.842987,268.068176 358.292175,272.325043 359.807709,276.554993 
	C361.680084,281.780792 363.387421,287.090820 365.670074,292.136475 
	C367.472687,296.121033 370.127655,299.711975 372.218750,303.577942 
	C373.062866,305.138611 373.413666,306.966095 373.978577,309.097656 
	C371.861664,309.003723 369.755096,308.484314 367.116394,307.624939 
	C366.305969,307.123352 366.007355,307.064362 365.688416,307.107971 
	C358.291138,304.955536 350.893829,302.803070 343.229858,300.406342 
	C343.178345,293.147125 341.123596,287.047302 337.054596,281.165405 
	C334.521667,277.503937 333.902374,272.558472 332.144287,268.304932 
	C331.213348,266.052612 329.460632,264.143921 328.493805,261.901215 
	C327.678741,260.010559 327.462769,257.861633 326.986877,255.469101 
	C336.836212,257.251068 346.680267,259.390991 356.780243,261.723785 
z"/>
<path fill="#285DA5" opacity="1.000000" stroke="none" 
	d="
M348.155151,110.300194 
	C351.670715,109.327362 355.306885,108.136993 358.957581,108.090584 
	C375.338440,107.882355 391.723419,107.999481 408.579376,107.997566 
	C409.127960,115.024147 409.204102,122.052376 408.719330,129.539841 
	C396.646362,129.999069 385.134308,129.999069 374.254639,129.999069 
	C374.125214,132.634537 374.040497,134.359756 373.955780,136.084991 
	C365.398010,127.593109 356.840210,119.101227 348.155151,110.300194 
z"/>
<path fill="#2A63A9" opacity="1.000000" stroke="none" 
	d="
M264.908691,121.148163 
	C261.387238,118.106575 257.403748,117.805519 253.140579,117.955795 
	C243.681168,118.289223 234.213806,118.420753 224.748474,118.518509 
	C223.941574,118.526848 223.125702,117.668602 221.992706,117.018112 
	C229.487000,108.935341 237.302551,101.047386 245.855682,93.057312 
	C248.861053,93.213036 251.124344,93.638092 253.397461,93.699471 
	C262.716675,93.951096 272.054962,93.838417 281.350311,94.426865 
	C284.164520,94.605019 287.665192,92.351929 289.969482,95.895058 
	C281.711548,104.270905 273.453583,112.646751 264.908691,121.148163 
z"/>
<path fill="#276BB0" opacity="1.000000" stroke="none" 
	d="
M404.190094,318.472443 
	C404.343597,317.602386 404.784302,316.956146 405.375610,316.089020 
	C403.846680,315.583374 402.463623,315.126007 401.080536,314.668610 
	C401.470978,314.465088 401.861420,314.261566 402.251831,314.058044 
	C400.946533,311.670532 400.193359,308.593140 398.232941,307.024200 
	C392.224274,302.215485 390.452759,295.617615 388.928497,288.665771 
	C388.451874,286.492035 387.036926,284.536835 386.165588,282.434357 
	C384.072479,277.383698 382.047028,272.305054 379.990356,266.870483 
	C388.399384,267.950104 396.812286,269.396942 405.600891,270.985352 
	C405.672821,272.615631 404.700592,274.366669 405.166382,275.553314 
	C411.313293,291.213745 417.662567,306.794769 423.946289,322.796326 
	C417.446655,321.696747 410.961975,320.196533 404.190094,318.472443 
z"/>
<path fill="#2375B7" opacity="1.000000" stroke="none" 
	d="
M348.140198,62.580421 
	C329.188354,66.688194 309.865570,64.589615 290.645294,64.793831 
	C286.743866,64.835266 282.814362,62.237446 278.736969,60.442280 
	C283.780609,54.738979 288.985077,49.449745 294.825684,44.186821 
	C296.940399,44.540363 298.415924,45.131382 299.897980,45.148235 
	C305.683136,45.214024 311.755188,43.990234 317.171143,45.382759 
	C321.929993,46.606339 324.849060,45.073067 328.212799,42.890640 
	C334.805725,49.350967 341.398651,55.811291 348.140198,62.580421 
z"/>
<path fill="#27549E" opacity="1.000000" stroke="none" 
	d="
M374.047455,136.407700 
	C374.040497,134.359756 374.125214,132.634537 374.254639,129.999069 
	C385.134308,129.999069 396.646362,129.999069 408.608002,129.997269 
	C409.138702,133.339294 409.219849,136.683136 408.989746,140.622238 
	C408.787201,141.680008 408.895905,142.142487 409.004608,142.604980 
	C409.334656,142.152435 409.664673,141.699875 409.994720,141.247330 
	C411.185577,137.168518 412.376465,133.089691 413.342773,129.780075 
	C420.918793,136.812668 428.577728,143.930435 436.250916,151.032837 
	C437.060120,151.781860 437.953125,152.440308 438.748383,153.752975 
	C438.072174,154.505035 437.448395,154.789505 436.838623,154.762054 
	C431.340973,154.514633 425.848267,154.146683 420.349304,153.943146 
	C413.597626,153.693253 406.525116,154.737015 400.185669,153.023148 
	C394.977234,151.615036 394.799500,152.987396 395.018372,156.908508 
	C388.058624,150.182480 381.098877,143.456451 374.047455,136.407700 
z"/>
<path fill="#F3782A" opacity="1.000000" stroke="none" 
	d="
M491.074677,109.474854 
	C490.565033,105.965866 491.936584,104.567627 495.184235,104.990448 
	C497.939301,105.349159 500.698456,105.748848 503.468506,105.906647 
	C510.757599,106.321869 518.053650,106.615196 525.809937,106.926620 
	C530.763611,111.763107 535.254333,116.630066 540.155945,121.942329 
	C541.178650,120.007240 541.661560,119.093498 542.503357,117.700539 
	C542.679993,116.201332 542.497803,115.181343 542.315613,114.161346 
	C541.287842,111.356056 540.574402,108.725655 545.684692,109.255814 
	C546.207031,109.466537 546.649902,109.537712 546.649902,109.537712 
	C546.649902,109.537712 546.977539,109.187973 546.977539,109.187973 
	C550.364624,109.144493 553.751709,109.101013 557.680237,109.282646 
	C558.221680,109.507751 558.644409,109.570465 558.644409,109.570465 
	C558.644409,109.570465 558.961121,109.246193 558.961121,109.246185 
	C559.430542,109.189583 559.899963,109.132988 560.780151,109.330933 
	C561.316528,109.752274 561.475769,109.875732 561.668640,109.955856 
	C561.760620,115.000435 561.852661,120.045013 561.429382,125.544434 
	C556.130493,125.666183 551.350891,125.245125 546.562134,125.025139 
	C541.914978,124.811638 537.258362,124.801811 532.605835,124.707474 
	C524.408997,124.541267 516.212219,124.366066 508.014618,124.256775 
	C507.649628,124.251907 507.276489,124.861008 506.907135,125.184128 
	C501.674347,120.047325 496.441559,114.910522 491.074677,109.474854 
z"/>
<path fill="#2C92CC" opacity="1.000000" stroke="none" 
	d="
M547.567810,278.149780 
	C549.430847,288.808472 553.455139,298.459198 558.302368,307.901031 
	C560.372253,311.933075 561.418457,316.490692 563.073364,321.195923 
	C556.441589,323.454285 549.666260,325.326172 542.481995,327.191650 
	C539.973328,310.697388 530.871338,296.992981 524.250000,282.301392 
	C524.053406,281.865234 524.084900,281.326263 524.005127,280.468750 
	C531.712280,279.429321 539.424438,278.756439 547.567810,278.149780 
z"/>
<path fill="#2A4C99" opacity="1.000000" stroke="none" 
	d="
M210.650970,174.825226 
	C209.235947,173.908234 207.955429,172.172897 206.617538,172.127472 
	C193.851547,171.694016 181.075821,171.546722 168.081879,171.004181 
	C174.941986,163.501831 182.023117,156.312546 189.403091,148.992035 
	C190.567535,149.218063 191.433136,149.575317 192.703079,150.104584 
	C193.192810,150.325989 193.278183,150.375351 193.363541,150.424728 
	C193.242355,150.283157 193.121185,150.141571 193.000000,150.000000 
	C193.557205,149.707794 194.133286,149.130554 194.668808,149.165985 
	C203.203842,149.730850 211.733856,150.371445 220.264603,151.000488 
	C224.460114,151.309860 228.654770,151.630905 233.241669,152.097290 
	C227.596695,158.403137 221.559860,164.558350 214.908157,170.896484 
	C213.850067,171.691376 213.406845,172.303314 212.963623,172.915253 
	C212.963623,172.915268 212.987183,172.985825 212.603394,173.042068 
	C211.791290,173.614944 211.362961,174.131561 210.934662,174.648193 
	C210.934662,174.648209 210.758865,174.790924 210.650970,174.825226 
z"/>
<path fill="#2A4B98" opacity="1.000000" stroke="none" 
	d="
M395.148651,157.221863 
	C394.799500,152.987396 394.977234,151.615036 400.185669,153.023148 
	C406.525116,154.737015 413.597626,153.693253 420.349304,153.943146 
	C425.848267,154.146683 431.340973,154.514633 436.838623,154.762054 
	C437.448395,154.789505 438.072174,154.505035 438.905518,154.055374 
	C444.731323,159.251221 450.341064,164.756912 456.088867,170.572525 
	C454.322784,171.588196 452.442902,172.822433 450.510406,172.911285 
	C440.311615,173.380203 430.100525,173.633743 419.891144,173.767990 
	C418.206329,173.790161 416.508942,172.851013 414.218567,172.180939 
	C414.864807,174.032013 415.361969,175.455978 415.811035,177.267273 
	C408.934998,170.948120 402.106964,164.241669 395.148651,157.221863 
z"/>
<path fill="#2AA1DA" opacity="1.000000" stroke="none" 
	d="
M591.354248,309.930634 
	C589.951050,307.021088 588.948853,304.065399 587.816223,301.160522 
	C587.540833,300.454224 586.952942,299.571289 586.310669,299.353394 
	C580.786194,297.478668 580.758484,293.160248 580.808289,288.385712 
	C580.833130,286.003479 579.613037,283.545990 578.680969,281.233459 
	C577.740356,278.899750 576.459167,276.703339 575.126099,274.133484 
	C582.692383,271.551239 590.459839,269.282227 598.613770,267.007324 
	C600.137817,270.673157 601.140198,274.393738 602.445312,278.004913 
	C604.313721,283.174988 606.331848,288.294983 608.451294,293.367340 
	C608.949036,294.558472 610.107727,295.473450 611.022827,296.869537 
	C604.624634,301.450104 598.166016,305.676636 591.354248,309.930634 
z"/>
<path fill="#F26F2B" opacity="1.000000" stroke="none" 
	d="
M507.022552,125.493927 
	C507.276489,124.861008 507.649628,124.251907 508.014618,124.256775 
	C516.212219,124.366066 524.408997,124.541267 532.605835,124.707474 
	C537.258362,124.801811 541.914978,124.811638 546.562134,125.025139 
	C551.350891,125.245125 556.130493,125.666183 561.324219,126.001068 
	C561.877991,131.330414 562.021545,136.657990 561.806702,142.473419 
	C557.729431,143.269348 553.873840,144.354980 550.319153,143.729736 
	C541.936951,142.255356 533.636475,142.402756 525.268616,143.252808 
	C519.225037,137.436447 513.181519,131.620087 507.022552,125.493927 
z"/>
<path fill="#F2652D" opacity="1.000000" stroke="none" 
	d="
M525.412598,143.578903 
	C533.636475,142.402756 541.936951,142.255356 550.319153,143.729736 
	C553.873840,144.354980 557.729431,143.269348 561.863281,142.932343 
	C569.185730,149.690186 576.093262,156.477005 583.137451,163.578461 
	C573.136841,163.928741 562.999390,163.942139 552.862427,164.020859 
	C551.076721,164.034714 549.293152,164.321762 547.223022,164.796005 
	C539.810547,158.041245 532.683594,150.973129 525.412598,143.578903 
z"/>
<path fill="#F2732C" opacity="1.000000" stroke="none" 
	d="
M477.350464,119.117737 
	C473.613464,123.288826 469.973816,127.552521 466.115417,131.608154 
	C460.993622,136.991760 455.701050,142.212936 450.615997,147.367905 
	C443.963867,140.810104 437.751129,134.685425 430.777435,127.810600 
	C434.571747,124.312973 438.450714,120.737297 442.908020,117.333046 
	C454.774414,118.042229 466.062439,118.579987 477.350464,119.117737 
z"/>
<path fill="#2A5AA2" opacity="1.000000" stroke="none" 
	d="
M364.907623,346.233490 
	C346.729095,339.488403 328.550598,332.743286 310.143494,325.359924 
	C310.003021,321.266144 310.091064,317.810608 310.179138,314.355103 
	C310.179138,314.355103 310.629669,314.404480 310.969849,314.888123 
	C312.232971,315.570648 313.155884,315.769501 314.078796,315.968384 
	C330.239685,322.063904 346.400604,328.159424 362.992523,334.569427 
	C363.578003,334.959625 363.740295,335.010254 363.910370,335.035797 
	C363.910370,335.035797 363.959381,334.993225 363.973846,335.461670 
	C364.670410,338.750519 365.352478,341.570923 366.034576,344.391296 
	C366.519684,344.317719 367.004761,344.244110 367.489868,344.170532 
	C366.629120,344.858185 365.768372,345.545837 364.907623,346.233490 
z"/>
<path fill="#296AAF" opacity="1.000000" stroke="none" 
	d="
M290.268433,95.757645 
	C287.665192,92.351929 284.164520,94.605019 281.350311,94.426865 
	C272.054962,93.838417 262.716675,93.951096 253.397461,93.699471 
	C251.124344,93.638092 248.861053,93.213036 246.153351,92.922195 
	C250.235703,88.263290 254.757950,83.637383 259.579498,78.842735 
	C260.625031,79.594482 261.368835,81.312859 262.117920,81.315186 
	C272.551208,81.347534 282.985046,81.125877 293.419220,81.010880 
	C296.799591,80.973618 300.181335,81.065781 303.972412,81.259262 
	C299.777374,86.153259 295.172363,90.886742 290.268433,95.757645 
z"/>
<path fill="#2F519C" opacity="1.000000" stroke="none" 
	d="
M309.916077,314.162781 
	C310.091064,317.810608 310.003021,321.266144 309.871490,325.165527 
	C295.463104,320.043945 281.098145,314.478455 266.491821,308.639832 
	C266.987183,308.081818 267.723938,307.796906 269.080322,307.272400 
	C264.477112,304.739899 266.169922,301.349304 266.977020,297.710144 
	C281.210083,302.873016 295.431549,308.421722 309.916077,314.162781 
z"/>
<path fill="#2771B3" opacity="1.000000" stroke="none" 
	d="
M409.162048,83.540100 
	C400.765137,83.667213 392.476379,83.336067 383.738678,83.007050 
	C383.289734,76.575157 383.289734,70.141136 383.289734,63.386299 
	C391.818115,63.386299 400.186951,63.386299 409.270172,63.386299 
	C409.270172,69.966469 409.270172,76.524155 409.162048,83.540100 
z"/>
<path fill="#F3782A" opacity="1.000000" stroke="none" 
	d="
M477.659790,118.998726 
	C466.062439,118.579987 454.774414,118.042229 443.214905,117.194710 
	C447.644989,112.131088 452.346497,107.377235 457.354248,102.461487 
	C459.416962,103.199600 461.140961,104.791801 462.935730,104.875977 
	C469.580688,105.187576 476.256439,104.824387 482.904053,105.106384 
	C485.006317,105.195557 488.647369,104.148186 488.151337,108.947021 
	C484.701111,112.494934 481.335114,115.687325 477.659790,118.998726 
z"/>
<path fill="#242424" opacity="1.000000" stroke="none" 
	d="
M347.028900,130.988586 
	C335.748779,119.290436 324.468658,107.592293 312.839722,95.532410 
	C296.216888,111.997742 280.572968,127.493462 264.328735,142.962494 
	C263.476135,142.801971 263.223877,142.668121 262.971649,142.534271 
	C265.135956,140.074280 267.238312,137.556396 269.474762,135.163849 
	C282.285889,121.458527 295.136810,107.790436 307.948090,94.085274 
	C309.170746,92.777306 310.213104,91.300819 311.646606,89.520714 
	C324.460815,103.173508 336.658661,116.169563 348.839020,129.755676 
	C348.223999,130.560013 347.626465,130.774292 347.028900,130.988586 
z"/>
<path fill="#2A63A9" opacity="1.000000" stroke="none" 
	d="
M365.158020,346.474731 
	C365.768372,345.545837 366.629120,344.858185 367.489868,344.170532 
	C367.004761,344.244110 366.519684,344.317719 366.034576,344.391296 
	C365.352478,341.570923 364.670410,338.750519 363.980804,335.493378 
	C374.090240,338.697693 384.207153,342.338776 394.700073,346.430298 
	C395.705048,346.958679 396.334045,347.036591 396.963074,347.114502 
	C398.759979,347.708740 400.556915,348.303009 402.678711,349.380798 
	C403.383850,350.435944 403.764038,351.007568 404.144226,351.579224 
	C404.426453,351.068146 404.708679,350.557068 404.990936,350.045990 
	C407.207733,350.705902 409.424500,351.365845 411.855103,352.609528 
	C410.505646,354.446594 409.058746,355.900238 407.345551,356.895630 
	C405.706116,357.848145 403.789886,358.324249 401.995331,359.009766 
	C399.528259,358.325592 397.061188,357.641418 394.097595,356.611877 
	C393.336334,356.107941 393.051270,356.051025 392.745880,356.095764 
	C383.633392,352.969177 374.520905,349.842560 365.158020,346.474731 
M405.295319,353.434570 
	C405.011017,353.705811 404.726715,353.977051 404.442413,354.248291 
	C404.554871,354.365967 404.758911,354.592102 404.766571,354.585602 
	C405.066437,354.332458 405.348389,354.058105 405.295319,353.434570 
z"/>
<path fill="#080808" opacity="1.000000" stroke="none" 
	d="
M291.316467,191.424255 
	C289.561523,191.423645 288.265503,191.423645 286.660767,191.423645 
	C286.660767,184.470901 286.660767,177.937180 286.660767,171.135010 
	C293.382690,171.135010 299.929657,171.135010 306.766846,171.135010 
	C306.766846,177.850403 306.766846,184.394943 306.766846,191.424866 
	C301.678070,191.424866 296.726746,191.424866 291.316467,191.424255 
z"/>
<path fill="#080808" opacity="1.000000" stroke="none" 
	d="
M326.015747,170.869141 
	C329.979889,170.869125 333.452759,170.869125 337.286865,170.869125 
	C337.286865,177.678955 337.286865,184.222000 337.286865,191.099396 
	C330.799408,191.099396 324.237610,191.099396 317.327576,191.099396 
	C317.327576,184.590561 317.327576,178.070068 317.327576,170.869141 
	C320.020203,170.869141 322.772339,170.869141 326.015747,170.869141 
z"/>
<path fill="#080808" opacity="1.000000" stroke="none" 
	d="
M330.899872,162.141388 
	C326.123444,162.141403 321.833496,162.141403 317.265869,162.141403 
	C317.265869,155.256561 317.265869,148.696823 317.265869,141.907852 
	C323.872833,141.907852 330.458252,141.907852 337.348297,141.907852 
	C337.348297,148.583893 337.348297,155.112946 337.348297,162.141388 
	C335.271942,162.141388 333.329163,162.141388 330.899872,162.141388 
z"/>
<path fill="#080808" opacity="1.000000" stroke="none" 
	d="
M292.287537,141.687073 
	C297.379974,141.686127 302.006195,141.686127 306.841248,141.686127 
	C306.841248,148.529312 306.841248,154.955811 306.841248,161.764954 
	C300.203064,161.764954 293.523346,161.764954 286.593445,161.764954 
	C286.593445,155.266327 286.593445,148.839615 286.593445,141.688004 
	C288.321991,141.688004 290.071625,141.688004 292.287537,141.687073 
z"/>
<path fill="#2B77B6" opacity="1.000000" stroke="none" 
	d="
M466.977966,365.268860 
	C471.028687,365.715851 475.079437,366.162842 479.656464,366.978882 
	C480.777283,367.270447 481.371826,367.192963 481.966339,367.115479 
	C484.703552,367.286255 487.440735,367.457031 490.796692,368.037872 
	C493.621124,369.202118 496.885864,368.855957 495.981018,372.842102 
	C494.920105,372.909760 493.859161,372.977448 492.345978,372.653992 
	C490.925873,372.480164 489.958008,372.697449 488.990173,372.914734 
	C472.893890,371.441284 456.797607,369.967834 440.352356,367.920746 
	C439.340515,364.753601 438.677643,362.160095 438.014771,359.566559 
	C447.097046,361.327301 456.179352,363.088043 465.710144,365.144043 
	C466.431732,365.382477 466.704865,365.325684 466.977966,365.268860 
z"/>
<path fill="#2881BF" opacity="1.000000" stroke="none" 
	d="
M328.077454,42.579350 
	C324.849060,45.073067 321.929993,46.606339 317.171143,45.382759 
	C311.755188,43.990234 305.683136,45.214024 299.897980,45.148235 
	C298.415924,45.131382 296.940399,44.540363 295.126587,44.051163 
	C300.719604,38.461983 306.647919,33.034786 313.101105,27.127060 
	C317.608978,31.726049 322.775574,36.997055 328.077454,42.579350 
z"/>
<path fill="#306DAF" opacity="1.000000" stroke="none" 
	d="
M437.660187,359.374268 
	C438.677643,362.160095 439.340515,364.753601 440.005615,367.745667 
	C427.526672,365.248657 415.045471,362.353180 402.279816,359.233704 
	C403.789886,358.324249 405.706116,357.848145 407.345551,356.895630 
	C409.058746,355.900238 410.505646,354.446594 412.149353,352.787537 
	C420.588379,354.648529 428.946991,356.915253 437.660187,359.374268 
z"/>
<path fill="#3786C2" opacity="1.000000" stroke="none" 
	d="
M496.440796,372.917419 
	C496.885864,368.855957 493.621124,369.202118 491.178833,368.149109 
	C500.402802,367.873840 509.864685,368.002228 519.323303,367.880066 
	C524.676636,367.810974 530.024597,367.330414 535.430725,367.532074 
	C522.812256,370.967255 509.973694,372.781464 496.440796,372.917419 
z"/>
<path fill="#353535" opacity="1.000000" stroke="none" 
	d="
M262.929199,144.983994 
	C260.704254,147.511322 258.479340,150.038666 256.254395,152.566010 
	C255.702972,152.047333 255.151550,151.528671 254.600128,151.009995 
	C256.823395,148.658463 259.046661,146.306931 261.693298,144.079163 
	C262.387482,144.463287 262.658356,144.723648 262.929199,144.983994 
z"/>
<path fill="#242424" opacity="1.000000" stroke="none" 
	d="
M364.988220,146.921982 
	C361.801575,144.727097 358.614929,142.532227 355.428284,140.337357 
	C356.042969,139.652359 356.657684,138.967377 357.272369,138.282394 
	C359.602509,141.122726 361.932617,143.963074 364.623291,146.885101 
	C364.983795,146.966797 364.988220,146.921982 364.988220,146.921982 
z"/>
<path fill="#304695" opacity="1.000000" stroke="none" 
	d="
M379.577301,163.720612 
	C376.750183,160.824005 373.923065,157.927399 371.095947,155.030792 
	C371.449646,154.642242 371.803375,154.253677 372.157074,153.865128 
	C374.743500,156.652817 377.329895,159.440491 379.868530,162.744934 
	C379.739563,163.414688 379.658417,163.567657 379.577301,163.720612 
z"/>
<path fill="#353535" opacity="1.000000" stroke="none" 
	d="
M347.191101,131.325012 
	C347.626465,130.774292 348.223999,130.560013 348.975677,130.054642 
	C350.183197,130.991196 351.236633,132.218826 352.290039,133.446472 
	C351.908295,133.846024 351.526550,134.245560 351.144806,134.645111 
	C349.880981,133.650558 348.617157,132.656006 347.191101,131.325012 
z"/>
<path fill="#F48229" opacity="1.000000" stroke="none" 
	d="
M542.024475,114.306366 
	C542.497803,115.181343 542.679993,116.201332 542.733154,117.441864 
	C542.313782,116.592064 542.023560,115.521721 542.024475,114.306366 
z"/>
<path fill="#304695" opacity="1.000000" stroke="none" 
	d="
M381.116180,163.877045 
	C382.089691,164.352661 383.063202,164.828293 384.036713,165.303925 
	C383.613068,165.782104 383.189423,166.260284 382.765778,166.738464 
	C382.031647,166.137955 381.297516,165.537445 380.639679,164.564087 
	C380.849365,164.086517 380.982788,163.981781 381.116180,163.877045 
z"/>
<path fill="#242424" opacity="1.000000" stroke="none" 
	d="
M364.961884,146.970337 
	C365.524078,147.632889 366.108185,148.291916 366.915833,149.203140 
	C366.319183,148.264496 365.925568,147.645309 365.260101,146.974045 
	C364.988220,146.921982 364.983795,146.966797 364.961884,146.970337 
z"/>
<path fill="#3786C2" opacity="1.000000" stroke="none" 
	d="
M489.362549,373.004730 
	C489.958008,372.697449 490.925873,372.480164 491.951813,372.585205 
	C491.251587,372.969910 490.493225,373.032318 489.362549,373.004730 
z"/>
<path fill="#306DAF" opacity="1.000000" stroke="none" 
	d="
M404.779449,349.861145 
	C404.708679,350.557068 404.426453,351.068146 404.144226,351.579224 
	C403.764038,351.007568 403.383850,350.435944 402.996155,349.547729 
	C403.515106,349.379517 404.041534,349.527893 404.779449,349.861145 
z"/>
<path fill="#285DA5" opacity="1.000000" stroke="none" 
	d="
M409.803345,141.116760 
	C409.664673,141.699875 409.334656,142.152435 409.004608,142.604980 
	C408.895905,142.142487 408.787201,141.680008 408.915649,141.070999 
	C409.152771,140.924484 409.611969,140.986176 409.803345,141.116760 
z"/>
<path fill="#3786C2" opacity="1.000000" stroke="none" 
	d="
M481.746643,366.958069 
	C481.371826,367.192963 480.777283,367.270447 480.078583,367.148987 
	C480.491913,366.900269 481.009460,366.850433 481.746643,366.958069 
z"/>
<path fill="#306DAF" opacity="1.000000" stroke="none" 
	d="
M396.756348,346.931580 
	C396.334045,347.036591 395.705048,346.958679 395.031738,346.621582 
	C395.508209,346.491150 396.028900,346.619904 396.756348,346.931580 
z"/>
<path fill="#2B4394" opacity="1.000000" stroke="none" 
	d="
M213.225266,172.806366 
	C213.406845,172.303314 213.850067,171.691376 214.597473,171.026093 
	C214.430084,171.547684 213.958511,172.122574 213.225266,172.806366 
z"/>
<path fill="#2F519C" opacity="1.000000" stroke="none" 
	d="
M313.813354,315.747955 
	C313.155884,315.769501 312.232971,315.570648 311.109924,315.066254 
	C311.789154,315.016357 312.668549,315.271942 313.813354,315.747955 
z"/>
<path fill="#296AAF" opacity="1.000000" stroke="none" 
	d="
M304.592041,81.351883 
	C304.605164,80.980011 304.879791,80.534531 305.445068,80.043198 
	C305.441650,80.424316 305.147614,80.851295 304.592041,81.351883 
z"/>
<path fill="#2B4394" opacity="1.000000" stroke="none" 
	d="
M211.272949,174.577545 
	C211.362961,174.131561 211.791290,173.614944 212.567886,173.031036 
	C212.481171,173.478134 212.046204,173.992523 211.272949,174.577545 
z"/>
<path fill="#F48229" opacity="1.000000" stroke="none" 
	d="
M558.731445,109.184570 
	C558.961121,109.246193 558.644409,109.570465 558.644409,109.570465 
	C558.644409,109.570465 558.221680,109.507751 558.132690,109.379272 
	C558.043701,109.250801 558.501831,109.122940 558.731445,109.184570 
z"/>
<path fill="#2A63A9" opacity="1.000000" stroke="none" 
	d="
M363.842834,334.888550 
	C363.740295,335.010254 363.578003,334.959625 363.313293,334.822388 
	C363.386963,334.558899 363.577728,334.552368 363.842834,334.888550 
z"/>
<path fill="#2B66AB" opacity="1.000000" stroke="none" 
	d="
M365.844604,307.291260 
	C366.007355,307.064362 366.305969,307.123352 366.752380,307.442963 
	C366.920502,307.600952 366.443817,307.660278 366.443817,307.660278 
	C366.443817,307.660278 366.000793,307.474518 365.844604,307.291260 
z"/>
<path fill="#F48229" opacity="1.000000" stroke="none" 
	d="
M561.708008,109.754028 
	C561.475769,109.875732 561.316528,109.752274 561.117126,109.451981 
	C561.352783,109.171555 561.587402,109.249458 561.708008,109.754028 
z"/>
<path fill="#F48229" opacity="1.000000" stroke="none" 
	d="
M546.739502,109.113533 
	C546.977539,109.187973 546.649902,109.537712 546.649902,109.537712 
	C546.649902,109.537712 546.207031,109.466537 546.116394,109.327988 
	C546.025757,109.189430 546.501404,109.039093 546.739502,109.113533 
z"/>
<path fill="#242424" opacity="1.000000" stroke="none" 
	d="
M264.076630,143.185242 
	C264.249146,143.709000 264.073425,143.983353 263.332825,144.094971 
	C262.525513,143.799606 262.283020,143.666946 262.040527,143.534302 
	C262.062866,143.180893 262.228149,142.917053 262.754028,142.638535 
	C263.223877,142.668121 263.476135,142.801971 264.076630,143.185242 
z"/>
<path fill="#242424" opacity="1.000000" stroke="none" 
	d="
M263.117249,144.903305 
	C262.658356,144.723648 262.387482,144.463287 262.007294,143.938202 
	C261.897980,143.673477 261.977661,143.611908 262.009094,143.573105 
	C262.283020,143.666946 262.525513,143.799606 263.098602,144.182434 
	C263.429199,144.432617 263.305237,144.822601 263.117249,144.903305 
z"/>
<path fill="#306DAF" opacity="1.000000" stroke="none" 
	d="
M392.896606,356.269531 
	C393.051270,356.051025 393.336334,356.107941 393.759613,356.419525 
	C393.918152,356.572601 393.463867,356.635132 393.463867,356.635132 
	C393.463867,356.635132 393.047302,356.443298 392.896606,356.269531 
z"/>
<path fill="#3786C2" opacity="1.000000" stroke="none" 
	d="
M466.746918,365.148926 
	C466.704865,365.325684 466.431732,365.382477 466.082245,365.286560 
	C466.175873,365.098816 466.345856,365.063873 466.746918,365.148926 
z"/>
<path fill="#304695" opacity="1.000000" stroke="none" 
	d="
M380.486389,164.300781 
	C380.027405,164.350937 379.845520,164.223694 379.644226,163.874603 
	C379.658417,163.567657 379.739563,163.414688 379.983826,163.059570 
	C380.428772,163.031738 380.710571,163.206024 381.054291,163.628693 
	C380.982788,163.981781 380.849365,164.086517 380.486389,164.300781 
z"/>
<path fill="#2657A0" opacity="1.000000" stroke="none" 
	d="
M193.053711,150.138306 
	C193.121185,150.141571 193.242355,150.283157 193.363541,150.424728 
	C193.278183,150.375351 193.192810,150.325989 193.053711,150.138306 
z"/>
<path fill="#306DAF" opacity="1.000000" stroke="none" 
	d="
M405.463989,353.610535 
	C405.348389,354.058105 405.066437,354.332458 404.766571,354.585602 
	C404.758911,354.592102 404.554871,354.365967 404.442444,354.248291 
	C404.726715,353.977051 405.011017,353.705811 405.463989,353.610535 
z"/>
</svg>